<?xml version="1.0" encoding="UTF-8" standalone="no"?>
<!-- Created with Inkscape (http://www.inkscape.org/) -->

<svg
   xmlns:dc="http://purl.org/dc/elements/1.1/"
   xmlns:cc="http://creativecommons.org/ns#"
   xmlns:rdf="http://www.w3.org/1999/02/22-rdf-syntax-ns#"
   xmlns:svg="http://www.w3.org/2000/svg"
   xmlns="http://www.w3.org/2000/svg"
   xmlns:xlink="http://www.w3.org/1999/xlink"
   xmlns:sodipodi="http://sodipodi.sourceforge.net/DTD/sodipodi-0.dtd"
   xmlns:inkscape="http://www.inkscape.org/namespaces/inkscape"
   width="64px"
   height="64px"
   id="svg4197"
   version="1.1"
   inkscape:version="0.48.4 r9939"
   sodipodi:docname="comidaInk.svg">
  <defs
     id="defs4199">
    <linearGradient
       id="linearGradient4176">
      <stop
         style="stop-color:#ffffff;stop-opacity:1;"
         offset="0"
         id="stop4178" />
      <stop
         style="stop-color:#adadac;stop-opacity:1"
         offset="1"
         id="stop4180" />
    </linearGradient>
    <linearGradient
       id="linearGradient4069">
      <stop
         id="stop4071"
         offset="0"
         style="stop-color:#ffffff;stop-opacity:1;" />
      <stop
         style="stop-color:#ffffff;stop-opacity:1;"
         offset="0.5"
         id="stop4073" />
      <stop
         id="stop4075"
         offset="0.85737771"
         style="stop-color:#ffffff;stop-opacity:1;" />
      <stop
         id="stop4077"
         offset="1"
         style="stop-color:#666666;stop-opacity:1;" />
    </linearGradient>
    <linearGradient
       id="linearGradient3977">
      <stop
         style="stop-color:#ffffff;stop-opacity:1;"
         offset="0"
         id="stop3979" />
      <stop
         id="stop3985"
         offset="0.5"
         style="stop-color:#ffffff;stop-opacity:1;" />
      <stop
         style="stop-color:#ffffff;stop-opacity:1;"
         offset="0.75"
         id="stop3987" />
      <stop
         style="stop-color:#666666;stop-opacity:1;"
         offset="1"
         id="stop3981" />
    </linearGradient>
    <filter
       inkscape:collect="always"
       id="filter4797">
      <feGaussianBlur
         inkscape:collect="always"
         stdDeviation="0.22722605"
         id="feGaussianBlur4799" />
    </filter>
    <filter
       inkscape:collect="always"
       id="filter4821">
      <feGaussianBlur
         inkscape:collect="always"
         stdDeviation="0.44621809"
         id="feGaussianBlur4823" />
    </filter>
    <filter
       inkscape:collect="always"
       id="filter4847">
      <feGaussianBlur
         inkscape:collect="always"
         stdDeviation="0.57818182"
         id="feGaussianBlur4849" />
    </filter>
    <filter
       inkscape:collect="always"
       id="filter4907"
       x="-0.048595041"
       width="1.0971901"
       y="-0.30947368"
       height="1.6189474">
      <feGaussianBlur
         inkscape:collect="always"
         stdDeviation="0.44545455"
         id="feGaussianBlur4909" />
    </filter>
    <filter
       inkscape:collect="always"
       id="filter5026"
       x="-0.16105785"
       width="1.3221157"
       y="-1.0256842"
       height="3.0513684">
      <feGaussianBlur
         inkscape:collect="always"
         stdDeviation="1.4763636"
         id="feGaussianBlur5028" />
    </filter>
    <radialGradient
       inkscape:collect="always"
       xlink:href="#linearGradient4069"
       id="radialGradient3983"
       cx="31.90909"
       cy="37.727272"
       fx="31.90909"
       fy="37.727272"
       r="26.34091"
       gradientTransform="matrix(1,0,0,0.48231231,0,19.530944)"
       gradientUnits="userSpaceOnUse" />
    <linearGradient
       inkscape:collect="always"
       xlink:href="#linearGradient3977"
       id="linearGradient4007"
       x1="77.005928"
       y1="38.420506"
       x2="34.119816"
       y2="-4.7043929"
       gradientUnits="userSpaceOnUse"
       spreadMethod="pad" />
    <filter
       inkscape:collect="always"
       id="filter4128"
       x="-0.19878837"
       width="1.3975767"
       y="-0.041403974"
       height="1.0828079">
      <feGaussianBlur
         inkscape:collect="always"
         stdDeviation="1.8972901"
         id="feGaussianBlur4130" />
    </filter>
    <filter
       inkscape:collect="always"
       id="filter4139"
       x="-0.17371622"
       width="1.3474324"
       y="-0.036262341"
       height="1.0725247">
      <feGaussianBlur
         inkscape:collect="always"
         stdDeviation="0.66953125"
         id="feGaussianBlur4141" />
    </filter>
    <filter
       inkscape:collect="always"
       id="filter4146"
       x="-0.22410959"
       width="1.4482192"
       y="-0.034636556"
       height="1.0692731">
      <feGaussianBlur
         inkscape:collect="always"
         stdDeviation="0.6390625"
         id="feGaussianBlur4148" />
    </filter>
    <linearGradient
       inkscape:collect="always"
       xlink:href="#linearGradient4176"
       id="linearGradient4174"
       x1="52.278"
       y1="4.688128"
       x2="52.53513"
       y2="10.087852"
       gradientUnits="userSpaceOnUse" />
  </defs>
  <sodipodi:namedview
     id="base"
     pagecolor="#ffffff"
     bordercolor="#666666"
     borderopacity="1.0"
     inkscape:pageopacity="0.0"
     inkscape:pageshadow="2"
     inkscape:zoom="3.8890873"
     inkscape:cx="-28.181818"
     inkscape:cy="22.575758"
     inkscape:current-layer="layer1"
     showgrid="true"
     inkscape:document-units="px"
     inkscape:grid-bbox="true"
     inkscape:window-width="1360"
     inkscape:window-height="705"
     inkscape:window-x="-8"
     inkscape:window-y="-8"
     inkscape:window-maximized="1"
     showguides="true"
     inkscape:guide-bbox="true" />
  <metadata
     id="metadata4202">
    <rdf:RDF>
      <cc:Work
         rdf:about="">
        <dc:format>image/svg+xml</dc:format>
        <dc:type
           rdf:resource="http://purl.org/dc/dcmitype/StillImage" />
        <dc:title />
      </cc:Work>
    </rdf:RDF>
  </metadata>
  <g
     id="layer1"
     inkscape:label="Layer 1"
     inkscape:groupmode="layer">
    <rect
       style="fill:url(#linearGradient4007);fill-opacity:1;stroke:#000000;stroke-width:0.41935596000000003;stroke-linecap:round;stroke-linejoin:bevel;stroke-miterlimit:4;stroke-opacity:1;stroke-dasharray:none;stroke-dashoffset:0;fill-rule:nonzero"
       id="rect4733"
       width="38.617832"
       height="37.966766"
       x="38.800716"
       y="0.23140895"
       transform="matrix(0.82879552,0.55955159,-0.84107113,0.54092454,0,0)" />
    <g
       id="g4851"
       transform="translate(59.818182,1.0909091)">
      <path
         transform="translate(-59.90909,5.6392765)"
         d="m 58,37.727272 c 0,6.878455 -11.681298,12.454545 -26.09091,12.454545 -14.409612,0 -26.0909099,-5.57609 -26.0909099,-12.454545 0,-6.878455 11.6812979,-12.454545 26.0909099,-12.454545 14.409612,0 26.09091,5.57609 26.09091,12.454545 z"
         sodipodi:ry="12.454545"
         sodipodi:rx="26.09091"
         sodipodi:cy="37.727272"
         sodipodi:cx="31.90909"
         id="path4205-8"
         style="fill:none;stroke:#000000;stroke-width:0.5;stroke-linecap:round;stroke-linejoin:round;stroke-miterlimit:4;stroke-opacity:1;stroke-dasharray:none;stroke-dashoffset:0;filter:url(#filter4847)"
         sodipodi:type="arc" />
      <g
         style="fill:#ffffff;fill-opacity:1"
         transform="translate(-60.181818,5.0909091)"
         id="g4209">
        <path
           sodipodi:type="arc"
           style="fill:url(#radialGradient3983);fill-opacity:1;stroke:#000000;stroke-width:0.50000000000000000;stroke-linecap:round;stroke-linejoin:round;stroke-miterlimit:4;stroke-opacity:1;stroke-dasharray:none;stroke-dashoffset:0"
           id="path4205"
           sodipodi:cx="31.90909"
           sodipodi:cy="37.727272"
           sodipodi:rx="26.09091"
           sodipodi:ry="12.454545"
           d="m 58,37.727272 c 0,6.878455 -11.681298,12.454545 -26.09091,12.454545 -14.409612,0 -26.0909099,-5.57609 -26.0909099,-12.454545 0,-6.878455 11.6812979,-12.454545 26.0909099,-12.454545 14.409612,0 26.09091,5.57609 26.09091,12.454545 z" />
        <path
           sodipodi:type="arc"
           style="fill:#ffffff;fill-opacity:1;stroke:#000000;stroke-width:0.5;stroke-linecap:round;stroke-linejoin:round;stroke-miterlimit:4;stroke-opacity:1;stroke-dasharray:none;stroke-dashoffset:0"
           id="path4207"
           sodipodi:cx="32.81818"
           sodipodi:cy="38.090908"
           sodipodi:rx="15.545455"
           sodipodi:ry="6.4545455"
           d="m 48.363635,38.090908 c 0,3.564747 -6.959937,6.454546 -15.545455,6.454546 -8.585518,0 -15.545455,-2.889799 -15.545455,-6.454546 0,-3.564747 6.959937,-6.454545 15.545455,-6.454545 8.585518,0 15.545455,2.889798 15.545455,6.454545 z" />
      </g>
    </g>
    <g
       id="g5030"
       transform="translate(-2.1818182,11.818182)">
      <path
         d="m 62.18182,10.272727 c 0,0.953946 -4.924868,1.727273 -11,1.727273 -6.075132,0 -11,-0.773327 -11,-1.727273 0,-0.9539464 4.924868,-1.7272727 11,-1.7272727 6.075132,0 11,0.7733263 11,1.7272727 z"
         sodipodi:ry="1.7272727"
         sodipodi:rx="11"
         sodipodi:cy="10.272727"
         sodipodi:cx="51.18182"
         id="path4857-7"
         style="opacity:0.44081636;fill:#000000;fill-opacity:1;stroke:none;filter:url(#filter4907)"
         sodipodi:type="arc"
         transform="matrix(1.0903887,0,0,1.0903887,-4.7171675,0.43509885)" />
      <path
         d="m 62.18182,10.272727 c 0,0.953946 -4.924868,1.727273 -11,1.727273 -6.075132,0 -11,-0.773327 -11,-1.727273 0,-0.9539464 4.924868,-1.7272727 11,-1.7272727 6.075132,0 11,0.7733263 11,1.7272727 z"
         sodipodi:ry="1.7272727"
         sodipodi:rx="11"
         sodipodi:cy="10.272727"
         sodipodi:cx="51.18182"
         id="path4857"
         style="fill:#ffffff;fill-opacity:1;stroke:#000000;stroke-width:0.5;stroke-linecap:round;stroke-linejoin:bevel;stroke-miterlimit:4;stroke-opacity:1;stroke-dasharray:none;stroke-dashoffset:0"
         sodipodi:type="arc" />
      <path
         d="m 62.18182,10.272727 c 0,0.953946 -4.924868,1.727273 -11,1.727273 -6.075132,0 -11,-0.773327 -11,-1.727273 0,-0.9539464 4.924868,-1.7272727 11,-1.7272727 6.075132,0 11,0.7733263 11,1.7272727 z"
         sodipodi:ry="1.7272727"
         sodipodi:rx="11"
         sodipodi:cy="10.272727"
         sodipodi:cx="51.18182"
         id="path4857-5"
         style="opacity:0.50612248;fill:#000000;fill-opacity:1;stroke:none;filter:url(#filter5026)"
         sodipodi:type="arc"
         transform="matrix(0.69068587,0,0,0.69068587,16.64944,3.0865908)" />
      <g
         transform="translate(28.909091,-7.6363637)"
         id="g4911">
        <path
           sodipodi:type="arc"
           style="fill:url(#linearGradient4174);fill-opacity:1;stroke:#000000;stroke-width:0.50000000000000000;stroke-linecap:round;stroke-linejoin:bevel;stroke-miterlimit:4;stroke-opacity:1;stroke-dasharray:none;stroke-dashoffset:0"
           id="path4859"
           sodipodi:cx="51.909092"
           sodipodi:cy="2"
           sodipodi:rx="12.454545"
           sodipodi:ry="8.545455"
           d="m 64.363637,2 c 0,4.7195245 -5.57609,8.545455 -12.454545,8.545455 -6.763494,0 -12.290811,-3.703656 -12.451049,-8.3429992"
           sodipodi:start="0"
           sodipodi:end="3.1178988"
           sodipodi:open="true"
           transform="translate(-29.636363,7.8181815)" />
        <path
           sodipodi:type="arc"
           style="opacity:0.85;fill:none;stroke:#000000;stroke-width:0.80000001;stroke-linecap:round;stroke-linejoin:bevel;stroke-miterlimit:4;stroke-opacity:1;stroke-dasharray:none;stroke-dashoffset:0"
           id="path4861"
           sodipodi:cx="64.727272"
           sodipodi:cy="6.909091"
           sodipodi:rx="3.8181818"
           sodipodi:ry="3.8181818"
           d="m 68.545454,6.909091 c 0,2.1087236 -1.709458,3.818182 -3.818182,3.818182 -2.07348,0 -3.767986,-1.6548251 -3.81711,-3.727723"
           sodipodi:start="0"
           sodipodi:end="3.1178988"
           sodipodi:open="true"
           transform="matrix(0.55912398,-0.82908406,0.82908406,0.55912398,-9.2436995,62.890356)" />
        <path
           sodipodi:type="arc"
           style="fill:#ffffff;fill-opacity:1;stroke:#000000;stroke-width:0.5;stroke-linecap:round;stroke-linejoin:bevel;stroke-miterlimit:4;stroke-opacity:1;stroke-dasharray:none;stroke-dashoffset:0"
           id="path4863"
           sodipodi:cx="21.90909"
           sodipodi:cy="9"
           sodipodi:rx="12.272727"
           sodipodi:ry="1.7272727"
           d="m 34.181817,9 c 0,0.9539464 -5.494687,1.727273 -12.272727,1.727273 C 15.13105,10.727273 9.636363,9.9539464 9.636363,9 c 0,-0.9539464 5.494687,-1.7272727 12.272727,-1.7272727 6.373514,0 11.68633,0.6866359 12.228279,1.5804003"
           sodipodi:start="0"
           sodipodi:end="6.1980511"
           sodipodi:open="true"
           transform="translate(0.18181818,0.72727273)" />
      </g>
    </g>
    <path
       style="fill:#adadac;fill-opacity:1;stroke:none"
       id="path5039"
       d="m 49.050857,1.7323473 c -0.331688,0.400861 0.07974,-0.09838 0.785815,-0.85315703 0.02274,-0.02431 -0.04209,0.05866 -0.06321,0.08781 -0.06436,0.08884 -0.12929,0.17597103 -0.194696,0.26199603 -0.112485,0.131155 -0.198205,0.311702 -0.282841,0.500096 -0.06797,0.166409 -0.114787,0.357428 -0.169332,0.539301 -0.04754,0.191479 -0.08574,0.392014 -0.124975,0.590546 -0.04072,0.222726 -0.09282,0.437674 -0.132007,0.661291 -0.03599,0.240236 -0.03973,0.491275 -0.04334,0.739277 -0.01034,0.248314 0.0015,0.487971 0.02746,0.730537 0.02947,0.226554 0.08842,0.432286 0.140236,0.642458 0.06555,0.191019 0.135678,0.378328 0.189507,0.58254 0.05488,0.178103 0.108486,0.359984 0.151663,0.549732 0.05827,0.175957 0.08884,0.375528 0.130559,0.566114 0.0403,0.235672 0.07933,0.472925 0.107437,0.715191 0.01671,0.250434 0.03534,0.496488 0.06473,0.742706 0.02946,0.250821 0.03632,0.507849 0.04095,0.763831 0.0035,0.270756 0.003,0.5416237 0.0028,0.8124397 -0.0091,0.238828 -0.03609,0.474922 -0.05958,0.710156 -0.03174,0.212297 -0.05823,0.42547 -0.102577,0.629774 -0.05602,0.172733 -0.09397,0.362652 -0.13605,0.548434 -0.03388,0.20496 -0.07887,0.400769 -0.103715,0.610786 -0.0146,0.215525 -0.07596,0.397402 -0.118839,0.593365 -0.03479,0.186592 -0.04095,0.384968 -0.04673,0.580841 0,0 -0.938394,0.900837 -0.938394,0.900837 l 0,0 c 0.0033,-0.210599 0.0068,-0.422639 0.03072,-0.629206 0.02934,-0.205219 0.09078,-0.36877 0.126667,-0.568171 0.01713,-0.225148 0.05613,-0.428792 0.09447,-0.640843 0.03302,-0.199353 0.08223,-0.3888 0.128139,-0.57751 0.07042,-0.170701 0.08023,-0.384001 0.115096,-0.585263 0.0415,-0.211806 0.03659,-0.449788 0.07509,-0.665582 1.7e-4,-0.268763 7.05e-4,-0.537556 -0.0019,-0.806287 -0.0034,-0.243683 -0.0078,-0.4886697 -0.03364,-0.7282327 -0.02864,-0.247976 -0.05302,-0.493051 -0.06329,-0.746774 -0.02452,-0.231619 -0.06521,-0.453554 -0.101497,-0.678893 -0.04156,-0.19034 -0.07234,-0.388444 -0.130111,-0.564524 -0.04123,-0.187263 -0.09577,-0.363998 -0.148078,-0.540553 -0.05272,-0.205882 -0.124802,-0.392145 -0.188246,-0.586296 -0.05788,-0.222694 -0.115914,-0.446554 -0.153819,-0.684898 -0.02768,-0.256672 -0.04821,-0.508553 -0.03602,-0.772264 0.0019,-0.261755 0.0034,-0.525376 0.02946,-0.783342 0.02986,-0.237976 0.09023,-0.44801 0.126848,-0.681537 0.04638,-0.19801 0.08205,-0.403403 0.118542,-0.608016 0.05164,-0.194473 0.108714,-0.380604 0.164419,-0.570643 0.07561,-0.208026 0.161973,-0.416724 0.275643,-0.55299 0.385418,-0.599667 0.861901,-0.98399303 1.27365,-1.49479403 0,0 -0.827037,1.25971703 -0.827037,1.25971703 z"
       inkscape:connector-curvature="0" />
    <path
       style="fill:#adadac;fill-opacity:1;stroke:none"
       id="path5039-7"
       d="m 45.048407,3.6229375 c -0.273327,0.330328 0.06571,-0.08107 0.647548,-0.7030409 0.01874,-0.020033 -0.03468,0.048338 -0.05209,0.07236 -0.05304,0.073208 -0.106541,0.1450083 -0.160439,0.2158969 -0.09269,0.1080778 -0.16333,0.2568568 -0.233074,0.4121022 -0.05601,0.1371287 -0.09459,0.2945372 -0.139537,0.444409 -0.03918,0.1577876 -0.07065,0.3230377 -0.102986,0.4866373 -0.03355,0.1835365 -0.07649,0.3606636 -0.108779,0.5449344 -0.02966,0.1979656 -0.03274,0.4048334 -0.03571,0.6091985 -0.0085,0.2046223 0.0012,0.4021107 0.02263,0.6019964 0.02428,0.1866909 0.07286,0.3562236 0.115561,0.5294151 0.05402,0.1574085 0.111805,0.3117598 0.156162,0.4800399 0.04522,0.1467651 0.0894,0.2966435 0.124978,0.4530046 0.04802,0.1449968 0.07321,0.3094525 0.107586,0.4665042 0.03321,0.1942047 0.06537,0.3897121 0.08853,0.5893505 0.01377,0.2063692 0.02912,0.4091291 0.05334,0.6120242 0.02428,0.2066881 0.02993,0.4184912 0.03374,0.6294327 0.0029,0.223115 0.0025,0.446323 0.0023,0.669488 -0.0075,0.196805 -0.02974,0.391357 -0.0491,0.585201 -0.02615,0.174943 -0.04798,0.350607 -0.08453,0.518963 -0.04616,0.14234 -0.07744,0.298842 -0.112112,0.451935 -0.02792,0.168897 -0.06499,0.330252 -0.08546,0.503316 -0.01203,0.177603 -0.0626,0.327478 -0.09793,0.48896 -0.02867,0.153761 -0.03375,0.317232 -0.03851,0.47864 0,0 -0.77328,0.742332 -0.77328,0.742332 l 0,0 c 0.0027,-0.173544 0.0056,-0.348274 0.02531,-0.518495 0.02418,-0.16911 0.07481,-0.303884 0.104379,-0.468199 0.01412,-0.185533 0.04625,-0.353345 0.07785,-0.528085 0.02721,-0.164276 0.06776,-0.320389 0.105592,-0.475895 0.05803,-0.140665 0.06611,-0.316434 0.09484,-0.482284 0.0342,-0.174538 0.03015,-0.370646 0.06188,-0.54847 1.4e-4,-0.221473 5.81e-4,-0.442971 -0.0016,-0.664418 -0.0028,-0.200806 -0.0064,-0.402687 -0.02772,-0.600098 -0.0236,-0.204343 -0.04369,-0.4062964 -0.05215,-0.615376 C 44.69547,9.4138522 44.66194,9.2309674 44.632038,9.0452777 44.59779,8.8884287 44.572426,8.7251818 44.52482,8.5800837 44.490845,8.4257703 44.445901,8.2801325 44.402797,8.134643 44.359353,7.9649867 44.299954,7.8114974 44.247673,7.6515079 44.199978,7.4679978 44.152155,7.2835267 44.120919,7.0871203 44.09811,6.8756107 44.081192,6.6680491 44.091237,6.450739 c 0.0016,-0.2156982 0.0028,-0.4329342 0.02428,-0.6455101 0.02461,-0.1961033 0.07435,-0.369181 0.104528,-0.5616181 0.03822,-0.1631694 0.06761,-0.3324227 0.09768,-0.5010333 0.04255,-0.1602548 0.08959,-0.3136354 0.135489,-0.4702363 0.06231,-0.1714231 0.133474,-0.3433999 0.227143,-0.4556894 0.317602,-0.4941533 0.710246,-0.8108558 1.049547,-1.2317795 0,0 -0.681517,1.0380652 -0.681517,1.0380652 z"
       inkscape:connector-curvature="0" />
    <path
       style="fill:#adadac;fill-opacity:1;stroke:none"
       id="path5039-7-8"
       d="m 52.502953,3.0774822 c -0.273327,0.330328 0.06571,-0.08107 0.647548,-0.7030409 0.01874,-0.020033 -0.03468,0.048338 -0.05209,0.07236 -0.05304,0.073208 -0.106541,0.1450083 -0.160439,0.2158969 -0.09269,0.1080778 -0.16333,0.2568568 -0.233074,0.4121022 -0.05601,0.1371287 -0.09459,0.2945372 -0.139537,0.444409 -0.03918,0.1577876 -0.07065,0.3230377 -0.102986,0.4866373 -0.03355,0.1835365 -0.07649,0.3606636 -0.108779,0.5449344 -0.02966,0.1979656 -0.03274,0.4048334 -0.03571,0.6091985 -0.0085,0.2046223 0.0012,0.4021107 0.02263,0.6019964 0.02428,0.1866909 0.07286,0.3562236 0.115561,0.5294151 0.05402,0.1574085 0.111805,0.3117598 0.156162,0.4800399 0.04522,0.1467651 0.0894,0.2966435 0.124978,0.4530046 0.04802,0.1449968 0.07321,0.3094525 0.107586,0.4665042 0.03321,0.1942047 0.06537,0.3897121 0.08853,0.5893505 0.01377,0.2063692 0.02912,0.4091291 0.05334,0.6120242 0.02428,0.2066881 0.02993,0.4184912 0.03374,0.6294332 0.0029,0.223115 0.0025,0.446323 0.0023,0.6694883 -0.0075,0.196805 -0.02974,0.391357 -0.0491,0.585201 -0.02615,0.174943 -0.04798,0.350607 -0.08453,0.518963 -0.04616,0.14234 -0.07744,0.298842 -0.112112,0.451935 -0.02792,0.168897 -0.06499,0.330252 -0.08546,0.503316 -0.01203,0.177603 -0.0626,0.327478 -0.09793,0.48896 -0.02867,0.153761 -0.03375,0.317232 -0.03851,0.47864 0,0 -0.77328,0.742332 -0.77328,0.742332 l 0,0 c 0.0027,-0.173544 0.0056,-0.348274 0.02531,-0.518495 0.02418,-0.16911 0.07481,-0.303884 0.104379,-0.468199 0.01412,-0.185533 0.04625,-0.353345 0.07785,-0.528085 0.02721,-0.164276 0.06776,-0.320389 0.105592,-0.475895 0.05803,-0.140665 0.06611,-0.316434 0.09484,-0.482284 0.0342,-0.174538 0.03015,-0.370646 0.06188,-0.54847 1.4e-4,-0.221473 5.81e-4,-0.442971 -0.0016,-0.664418 -0.0028,-0.200806 -0.0064,-0.4026873 -0.02772,-0.6000983 -0.0236,-0.204343 -0.04369,-0.4062969 -0.05215,-0.6153765 -0.02016,-0.1908653 -0.05369,-0.3737501 -0.08359,-0.5594398 -0.03425,-0.156849 -0.05961,-0.3200959 -0.107218,-0.465194 C 51.945394,7.880315 51.900444,7.7346772 51.857341,7.5891877 51.813901,7.4195314 51.754498,7.2660421 51.702217,7.1060526 51.654527,6.9225425 51.606697,6.7380714 51.575463,6.541665 c -0.02281,-0.2115096 -0.03973,-0.4190712 -0.02968,-0.6363813 0.0016,-0.2156982 0.0028,-0.4329342 0.02428,-0.6455101 0.02461,-0.1961033 0.07435,-0.369181 0.104528,-0.5616181 0.03822,-0.1631694 0.06761,-0.3324227 0.09768,-0.5010333 0.04255,-0.1602548 0.08959,-0.3136354 0.135489,-0.4702363 0.06231,-0.1714231 0.133474,-0.3433999 0.227143,-0.4556894 0.317602,-0.4941533 0.710246,-0.8108558 1.049547,-1.2317795 0,0 -0.681517,1.0380652 -0.681517,1.0380652 z"
       inkscape:connector-curvature="0" />
    <g
       id="g4162"
       transform="matrix(0.79258771,0.60975792,-0.60975792,0.79258771,74.422888,31.459903)">
      <path
         inkscape:connector-curvature="0"
         id="rect3783-7"
         d="m -34.900933,22.327533 -0.78125,0.9375 0,8.3125 -1.03125,1.03125 -1.03125,-1 0,-0.03125 0,-8.28125 -0.375,-0.46875 c -0.138341,0.161753 -0.278842,0.319871 -0.40625,0.5 -0.240268,0.339689 -0.465371,0.72555 -0.65625,1.125 -0.08046,0.16837 -0.147967,0.353532 -0.21875,0.53125 l 0,7.3125 c 0.07131,0.179337 0.137596,0.392669 0.21875,0.5625 0.190879,0.39945 0.415982,0.754061 0.65625,1.09375 0.240268,0.339689 0.498712,0.636387 0.78125,0.90625 0.04677,0.04468 0.07718,0.0824 0.125,0.125 l 0.0625,0 1.28125,1.78125 0,2.40625 0,18.9375 c 0.100794,0.582877 0.0046,1.287111 -0.3125,2 -0.156197,0.351216 -0.329645,0.68963 -0.5625,1 -0.07538,0.402211 -0.125,0.804121 -0.125,1.25 0,2.345776 1.129506,4.28125 2.53125,4.28125 1.401744,0 2.53125,-1.935474 2.53125,-4.28125 0,-0.410537 -0.02843,-0.781846 -0.09375,-1.15625 -0.263698,-0.33639 -0.5155,-0.707 -0.6875,-1.09375 -0.333912,-0.750818 -0.409037,-1.491154 -0.28125,-2.09375 l 0,-18.84375 0.03125,0 0,-2.46875 1.25,-1.71875 0.03125,0 c 0.04782,-0.0426 0.109476,-0.08032 0.15625,-0.125 0.282538,-0.269863 0.540982,-0.566561 0.78125,-0.90625 0.240268,-0.339689 0.465371,-0.6943 0.65625,-1.09375 0.08316,-0.174031 0.145933,-0.378497 0.21875,-0.5625 l 0,-7.28125 c -0.07228,-0.182348 -0.1363,-0.389958 -0.21875,-0.5625 -0.190879,-0.39945 -0.415982,-0.785311 -0.65625,-1.125 -0.141645,-0.200258 -0.278601,-0.38515 -0.4375,-0.5625 l -0.34375,0.40625 0,8.3125 0,0.03125 -1.0625,1 -1,-1 0,-0.03125 0,-8.28125 -0.78125,-0.875 -0.25,0 z"
         style="fill:#c0c0c0;fill-opacity:0.57894736;fill-rule:nonzero;stroke:#000000;stroke-width:0.5;stroke-miterlimit:4;stroke-opacity:1;stroke-dasharray:none;filter:url(#filter4139)" />
      <g
         style="stroke-width:1.24103129;stroke-miterlimit:4;stroke-dasharray:none"
         transform="matrix(0.40289072,0,0,0.40289072,-23.593238,26.100472)"
         id="g3957">
        <path
           style="fill:#dcdcdc;fill-opacity:1;fill-rule:nonzero;stroke:#000000;stroke-width:1.24103129;stroke-miterlimit:4;stroke-opacity:1;stroke-dasharray:none"
           d="m -30.414085,-11.258523 -1.96875,2.3125003 0,20.6249997 0.0625,0.03125 -0.0625,0.03125 -2.5625,2.5 -2.59375,-2.46875 0.0625,-0.03125 0,-0.03125 0,-20.5624997 -1,-1.1562503 c -0.343371,0.4014823 -0.683765,0.8341593 -1,1.2812503 -0.59636,0.84313 -1.151226,1.758539 -1.625,2.75 -0.199698,0.417906 -0.324312,0.902644 -0.5,1.34375 l 0,18.1562497 c 0.176995,0.445126 0.29857,0.922219 0.5,1.34375 0.473774,0.991461 1.02864,1.93812 1.625,2.78125 0.59636,0.84313 1.236223,1.580182 1.9375,2.25 0.116096,0.110888 0.25631,0.175511 0.375,0.28125 l 14,0 c 0.11869,-0.105739 0.258904,-0.170362 0.375,-0.28125 0.701277,-0.669818 1.37239,-1.40687 1.96875,-2.25 0.59636,-0.84313 1.119976,-1.789789 1.59375,-2.78125 0.206412,-0.431956 0.350514,-0.918292 0.53125,-1.375 l 0,-18.0937497 c -0.179414,-0.4526 -0.326604,-0.946739 -0.53125,-1.375 -0.473774,-0.991461 -0.99739,-1.90687 -1.59375,-2.75 -0.351573,-0.497052 -0.730602,-0.966057 -1.125,-1.4062503 l -0.84375,1.0000003 0,20.6249997 0.03125,0.03125 -0.03125,0.03125 -2.59375,2.46875 -2.53125,-2.46875 0,-0.03125 0,-20.5624997 -1.9375,-2.2187503 -0.5625,0 z"
           id="rect3783"
           inkscape:connector-curvature="0" />
        <path
           inkscape:connector-curvature="0"
           style="fill:#c0c0c0;fill-opacity:1;fill-rule:nonzero;stroke:#000000;stroke-width:1.24103129;stroke-miterlimit:4;stroke-opacity:1;stroke-dasharray:none"
           d="m -30.0625,10.46875 -7.09375,9.65625 3.28125,4.4375 0,5.96875 0.03125,0 0,47.0625 c 0.250177,1.446737 0.0057,3.136816 -0.78125,4.90625 -0.38769,0.871741 -0.859539,1.729641 -1.4375,2.5 -0.187111,0.998313 -0.3125,2.04955 -0.3125,3.15625 0,5.822362 2.802033,10.5625 6.28125,10.5625 3.479217,0 6.3125,-4.740138 6.3125,-10.5625 0,-1.018979 -0.08788,-2.008207 -0.25,-2.9375 -0.654516,-0.834941 -1.229335,-1.758812 -1.65625,-2.71875 -0.828791,-1.863577 -1.035926,-3.62932 -0.71875,-5.125 l 0,-46.84375 0.03125,0 0,-6.09375 3.28125,-4.46875 -6.96875,-9.5 z"
           id="path3903" />
      </g>
    </g>
    <g
       id="g4156"
       transform="matrix(0.77004199,-0.6379932,0.6379932,0.77004199,63.332251,-40.992967)">
      <path
         inkscape:connector-curvature="0"
         id="path3961-2"
         d="m -67.551407,29.753045 c -2.837695,0 -5.125,5.931854 -5.125,13.25 0,1.989052 0.164676,3.869674 0.46875,5.5625 0.752132,0.174885 1.435193,0.512807 2.0625,0.96875 l 0,16 c 0.100795,0.582874 0.0047,1.255859 -0.3125,1.96875 -0.156197,0.351216 -0.360895,0.689629 -0.59375,1 -0.07538,0.40221 -0.125,0.835371 -0.125,1.28125 0,2.345775 1.129509,4.25 2.53125,4.25 1.401745,0 2.5625,-1.904225 2.5625,-4.25 0,-0.410538 -0.05969,-0.813097 -0.125,-1.1875 -0.263698,-0.336389 -0.484249,-0.706999 -0.65625,-1.09375 -0.333912,-0.750819 -0.409038,-1.459904 -0.28125,-2.0625 l 0,-9.25 c 0.0098,-0.0021 0.02124,0.0022 0.03125,0 l 0,-12.09375 1.28125,-1.78125 -1.28125,-1.75 0,-10.78125 c -0.143149,-0.03089 -0.29125,-0.03125 -0.4375,-0.03125 z"
         style="fill:#c0c0c0;fill-opacity:0.57894736;fill-rule:nonzero;stroke:#000000;stroke-width:0.5;stroke-linecap:round;stroke-linejoin:miter;stroke-miterlimit:4;stroke-opacity:1;stroke-dasharray:none;stroke-dashoffset:0;filter:url(#filter4146)" />
      <g
         id="g4152">
        <path
           style="fill:#dcdcdc;fill-opacity:1;fill-rule:nonzero;stroke:#000000;stroke-width:0.5;stroke-linecap:round;stroke-linejoin:miter;stroke-miterlimit:4;stroke-opacity:1;stroke-dasharray:none;stroke-dashoffset:0"
           d="m -66.456243,29.501598 c -2.837694,0 -5.134388,5.938209 -5.134388,13.256355 0,1.989052 0.173898,3.865554 0.477972,5.55838 2.839255,0.66018 4.980206,3.540688 4.980206,6.997467 0,0.225998 -0.01297,0.449419 -0.03081,0.670052 0.05433,-0.0083 0.102128,-0.01917 0.154183,-0.03045 l 0,-26.398499 c -0.143149,-0.03089 -0.300886,-0.0533 -0.447135,-0.0533 z"
           id="path3961"
           inkscape:connector-curvature="0" />
        <path
           inkscape:connector-curvature="0"
           style="fill:#c0c0c0;fill-opacity:1;fill-rule:nonzero;stroke:#000000;stroke-width:0.5;stroke-miterlimit:4;stroke-opacity:1;stroke-dasharray:none"
           d="m -67.528651,38.245925 -2.858006,3.890413 1.321986,1.787828 0,2.404754 0.01257,0 0,18.961046 c 0.100795,0.582874 0.0024,1.263791 -0.314759,1.976682 -0.156196,0.351216 -0.3463,0.696856 -0.579155,1.007227 -0.07538,0.40221 -0.125903,0.825745 -0.125903,1.271624 0,2.345775 1.128916,4.255533 2.530657,4.255533 1.401745,0 2.543248,-1.909758 2.543248,-4.255533 0,-0.410538 -0.03541,-0.809089 -0.100722,-1.183492 -0.263699,-0.336389 -0.495288,-0.708608 -0.667288,-1.095359 -0.333912,-0.750819 -0.417365,-1.462219 -0.289578,-2.064815 l 0,-18.872913 0.01259,0 0,-2.455115 1.321985,-1.800418 -2.807646,-3.827462 z"
           id="path3903-9" />
      </g>
    </g>
  </g>
</svg>
